<svg id="Layer_1" viewBox="0 0 512 512" xmlns="http://www.w3.org/2000/svg"><style>.st0{fill:#CCE134;} .st1{fill:#F3922B;} .st2{fill:#DC3348;} .st3{fill:#01B49E;} .st4{fill:#A0A01C;} .st5{fill:#3C7D90;}</style><g id="XMLID_703_"><path class="st0" id="XMLID_662_" d="M63.5 256l-48.1-83.4 48.1-83.3h96.2l48.2 83.3-48.2 83.4z"/><path class="st1" id="XMLID_704_" d="M207.9 172.7l-48.1-83.4L207.9 6h96.2l48.1 83.3-48.1 83.4z"/><path class="st2" id="XMLID_705_" d="M352.3 256l-48.2-83.3 48.2-83.4h96.2l48.1 83.4-48.1 83.3z"/><path class="st3" id="XMLID_869_" d="M65.1 422.7L17 339.3 65.1 256h96.3l48.1 83.3-48.1 83.4z"/><path class="st4" id="XMLID_868_" d="M209.5 506l-48.1-83.3 48.1-83.4h96.2l48.1 83.4-48.1 83.3z"/><path class="st5" id="XMLID_867_" d="M352.2 422.7l-48.1-83.4 48.1-83.3h96.2l48.1 83.3-48.1 83.4z"/></g></svg>