<svg id="Layer_1" viewBox="0 0 512 512" xmlns="http://www.w3.org/2000/svg"><style>.st0{fill:#38556D;} .st1{fill:#102535;} .st2{fill:#07D8C9;} .st3{fill:#006D6A;} .st4{fill:#FFD400;} .st5{fill:#EF9900;} .st6{fill:#EF7875;} .st7{fill:#D22D33;} .st8{fill:#FFFFFF;}</style><g id="XMLID_659_"><path class="st0" id="XMLID_661_" d="M6 185.8h109.6v52.4H6z"/><path class="st1" id="XMLID_660_" d="M182.2 169.8l-66.6 68.4v-52.4l66.6-68.4z"/><path class="st2" id="XMLID_619_" d="M6 238h109.6v52.4H6z"/><path class="st3" id="XMLID_614_" d="M182.2 222l-66.6 68.4V238l66.6-68.4z"/><path class="st4" id="XMLID_569_" d="M6 290.2h109.6v52.4H6z"/><path class="st5" id="XMLID_568_" d="M182.2 274.1l-66.6 68.5v-52.4l66.6-68.5z"/><path class="st6" id="XMLID_567_" d="M6 342.3h109.6v52.4H6z"/><path class="st0" id="XMLID_658_" d="M413.9 169.7H182.2v-52.4h231.7l29.2 26.2z"/><path class="st2" id="XMLID_657_" d="M364.7 221.8H182.2v-52.4h182.5l29.3 26.2z"/><path class="st4" id="XMLID_656_" d="M319.1 274H182.2v-52.4h136.9l29.2 26.2z"/><path class="st6" id="XMLID_647_" d="M268.2 326.2h-86v-52.4h86l29.2 26.2z"/><path class="st7" id="XMLID_56_" d="M182.2 326.3l-66.6 68.4v-52.4l66.6-68.4z"/><g id="XMLID_1504_"><path class="st0" d="M447.5 136.3h11.4c-2.1 2.4-3.8 4.8-4.9 7.3-1.1 2.5-1.7 5.3-1.7 8.4v3h5.3v-3c0-3.1.4-5.8 1.3-8.1s2.5-4.9 5-7.6v-4.1h-16.5v4.1z" id="XMLID_1505_"/><path class="st0" d="M475.8 140c-.8 0-1.5.1-2.2.3-.7.2-1.2.4-1.6.7l.6-4.7h9v-4.1h-13.3L467 145l4.7.3c.2-.5.5-.8.9-1.1.4-.3 1-.5 1.7-.5 1 0 1.7.4 2.1 1.1.4.7.7 1.7.7 3 0 1.2-.2 2.1-.6 2.7-.4.6-1.1.9-2 .9-.8 0-1.5-.2-2-.7-.5-.5-.8-1.1-.8-1.9l-5.2.3v.1c-.1 1.9.7 3.4 2.3 4.5 1.6 1.1 3.5 1.7 5.6 1.7 2.7 0 4.7-.7 6-2.2 1.3-1.5 1.9-3.3 1.9-5.5 0-2.5-.6-4.4-1.7-5.7-1-1.4-2.7-2.1-4.8-2z" id="XMLID_2153_"/><path class="st0" id="XMLID_2265_" d="M499.5 134.2L488.4 152l2.5 1.2 11.1-17.7z"/><path class="st0" d="M493.9 141.1c.9-.9 1.3-2 1.3-3.4v-1.2c0-1.4-.4-2.5-1.3-3.4s-2.1-1.3-3.8-1.3c-1.6 0-2.9.4-3.7 1.3s-1.3 2-1.3 3.4v1.2c0 1.3.4 2.5 1.3 3.3.9.9 2.1 1.3 3.8 1.3 1.6.1 2.8-.3 3.7-1.2zm-5.5-3.3v-1.2c0-.5.1-1 .4-1.3.3-.4.7-.5 1.2-.5s1 .2 1.3.5c.3.4.4.8.4 1.3v1.2c0 .5-.1 1-.4 1.3-.3.3-.7.5-1.2.5-.6 0-1-.2-1.3-.5-.2-.4-.4-.8-.4-1.3z" id="XMLID_2270_"/><path class="st0" d="M504.7 146c-.9-.9-2.1-1.3-3.8-1.3-1.6 0-2.9.4-3.8 1.3-.9.9-1.3 2-1.3 3.4v1.2c0 1.4.4 2.5 1.3 3.4.9.9 2.1 1.3 3.8 1.3 1.6 0 2.9-.4 3.7-1.3.9-.9 1.3-2 1.3-3.4v-1.2c.1-1.4-.3-2.5-1.2-3.4zm-2.1 4.6c0 .6-.1 1-.3 1.4-.2.3-.7.5-1.3.5-.5 0-.9-.2-1.2-.5-.3-.4-.5-.8-.5-1.3v-1.2c0-.5.1-.9.4-1.3.3-.4.7-.5 1.3-.5.5 0 .9.2 1.2.5.3.4.4.8.4 1.3v1.1z" id="XMLID_2273_"/></g><g id="XMLID_18_"><path class="st2" d="M410.2 192.6c-.8 0-1.5.1-2.2.3-.7.2-1.2.4-1.6.7l.6-4.8h9.1v-4.1h-13.5l-1.3 12.9 4.8.3c.2-.5.5-.8.9-1.2.4-.3 1-.5 1.7-.5 1 0 1.7.4 2.1 1.1.5.7.7 1.7.7 3 0 1.2-.2 2.1-.6 2.7-.4.6-1.1.9-2.1.9-.8 0-1.5-.2-2-.7-.5-.5-.8-1.1-.8-1.9l-5.2.3v.1c-.1 1.9.7 3.4 2.3 4.6 1.6 1.2 3.5 1.7 5.7 1.7 2.8 0 4.8-.7 6.1-2.2 1.3-1.5 1.9-3.3 1.9-5.5 0-2.5-.6-4.4-1.7-5.7-1.1-1.4-2.8-2.1-4.9-2z" id="XMLID_52_"/><path class="st2" d="M428.9 192.6c-.8 0-1.5.1-2.2.3-.7.2-1.2.4-1.6.7l.6-4.8h9.1v-4.1h-13.5l-1.3 12.9 4.8.3c.2-.5.5-.8.9-1.2.4-.3 1-.5 1.7-.5 1 0 1.7.4 2.1 1.1.5.7.7 1.7.7 3 0 1.2-.2 2.1-.6 2.7-.4.6-1.1.9-2.1.9-.8 0-1.5-.2-2-.7-.5-.5-.8-1.1-.8-1.9l-5.2.3v.1c-.1 1.9.7 3.4 2.3 4.6 1.6 1.2 3.5 1.7 5.7 1.7 2.8 0 4.8-.7 6.1-2.2 1.3-1.5 1.9-3.3 1.9-5.5 0-2.5-.6-4.4-1.7-5.7-1.1-1.4-2.8-2.1-4.9-2z" id="XMLID_2258_"/><path class="st2" d="M447.1 193.7c.9-.9 1.3-2 1.3-3.4v-1.2c0-1.4-.4-2.5-1.3-3.4s-2.1-1.3-3.8-1.3c-1.6 0-2.9.4-3.8 1.3-.9.9-1.3 2-1.3 3.4v1.2c0 1.4.4 2.5 1.3 3.4.9.9 2.2 1.3 3.8 1.3 1.7.1 2.9-.4 3.8-1.3zm-5.5-3.3v-1.2c0-.5.1-1 .4-1.3.3-.4.7-.5 1.2-.5s1 .2 1.3.5c.3.4.4.8.4 1.3v1.2c0 .5-.1 1-.4 1.3-.3.4-.7.5-1.2.5-.6 0-1-.2-1.3-.5-.2-.4-.4-.8-.4-1.3z" id="XMLID_2261_"/><path class="st2" id="XMLID_2262_" d="M452.8 186.8l-11.2 17.9 2.5 1.3 11.2-18z"/><path class="st2" d="M458.1 198.7c-.9-.9-2.1-1.3-3.8-1.3-1.6 0-2.9.4-3.8 1.3-.9.9-1.3 2-1.3 3.4v1.2c0 1.4.4 2.5 1.3 3.4.9.9 2.2 1.3 3.8 1.3 1.6 0 2.9-.4 3.8-1.3.9-.9 1.3-2 1.3-3.4v-1.2c0-1.4-.5-2.5-1.3-3.4zm-2.1 4.6c0 .6-.1 1-.3 1.4-.2.3-.7.5-1.3.5-.5 0-.9-.2-1.2-.6-.3-.4-.5-.8-.5-1.3v-1.2c0-.5.1-1 .4-1.3.3-.4.7-.5 1.3-.5.5 0 1 .2 1.3.5s.4.8.4 1.3v1.2z" id="XMLID_2269_"/></g><g id="XMLID_1613_"><path class="st4" d="M367 248.6c1.1-.5 1.9-1.2 2.6-2.1.6-.9.9-1.8.9-2.9 0-2.1-.7-3.7-2.2-4.8-1.5-1.1-3.5-1.7-6-1.7-2.1 0-3.9.6-5.4 1.7-1.5 1.1-2.2 2.6-2.1 4.4v.1h5.2c0-.6.2-1.2.7-1.5.5-.4 1-.6 1.7-.6.9 0 1.6.2 2.1.7.5.5.8 1.1.8 1.8 0 .9-.3 1.6-.8 2.1s-1.2.8-2.2.8h-2.5v3.9h2.5c1.1 0 1.9.3 2.5.8.6.5.9 1.3.9 2.4 0 .8-.3 1.4-.9 2-.6.5-1.4.8-2.3.8-.8 0-1.5-.2-2-.7-.5-.5-.8-1.1-.8-1.9h-5.2v.1c-.1 2.1.7 3.8 2.3 4.9 1.6 1.1 3.5 1.7 5.6 1.7 2.5 0 4.5-.6 6.1-1.8 1.6-1.2 2.4-2.8 2.4-4.9 0-1.3-.3-2.4-1-3.3-.7-.9-1.7-1.5-2.9-2z" id="XMLID_1614_"/><path class="st4" d="M382.5 245.3c-.8 0-1.5.1-2.2.3-.7.2-1.2.4-1.6.7l.6-4.8h9.1v-4.1H375l-1.3 12.8 4.8.3c.2-.5.5-.8.9-1.1.4-.3 1-.5 1.7-.5 1 0 1.7.4 2.1 1.1.5.7.7 1.7.7 3 0 1.2-.2 2.1-.6 2.7-.4.6-1.1.9-2.1.9-.8 0-1.5-.2-2-.7-.5-.5-.8-1.1-.8-1.9l-5.2.3v.1c-.1 1.9.7 3.4 2.3 4.5 1.6 1.1 3.5 1.7 5.7 1.7 2.7 0 4.8-.7 6-2.2 1.3-1.5 1.9-3.3 1.9-5.5 0-2.5-.6-4.4-1.7-5.7-1.1-1.3-2.7-1.9-4.9-1.9z" id="XMLID_1621_"/><path class="st4" id="XMLID_2149_" d="M406.4 239.5l-11.2 17.9 2.5 1.2 11.1-17.8z"/><path class="st4" d="M400.7 246.5c.9-.9 1.3-2 1.3-3.4v-1.2c0-1.4-.4-2.5-1.3-3.4s-2.1-1.3-3.8-1.3c-1.6 0-2.9.4-3.8 1.3s-1.3 2-1.3 3.4v1.2c0 1.4.4 2.5 1.3 3.4.9.9 2.1 1.3 3.8 1.3 1.7 0 2.9-.4 3.8-1.3zm-5.5-3.4v-1.2c0-.5.1-1 .4-1.3.3-.4.7-.5 1.2-.5s1 .2 1.3.5c.3.4.4.8.4 1.3v1.2c0 .5-.1 1-.4 1.3-.3.4-.7.5-1.2.5-.6 0-1-.2-1.3-.5-.2-.3-.4-.8-.4-1.3z" id="XMLID_2251_"/><path class="st4" d="M411.6 251.4c-.9-.9-2.1-1.3-3.8-1.3-1.6 0-2.9.4-3.8 1.3-.9.9-1.3 2-1.3 3.4v1.2c0 1.4.4 2.5 1.3 3.4.9.9 2.2 1.3 3.8 1.3 1.6 0 2.9-.4 3.7-1.3.9-.9 1.3-2 1.3-3.4v-1.2c.1-1.4-.4-2.5-1.2-3.4zm-2.1 4.6c0 .6-.1 1-.3 1.4-.2.3-.7.5-1.3.5-.5 0-.9-.2-1.2-.5-.3-.4-.5-.8-.5-1.3v-1.2c0-.5.1-1 .4-1.3.3-.4.7-.5 1.3-.5.5 0 1 .2 1.2.5s.4.8.4 1.3v1.1z" id="XMLID_2319_"/></g><g id="XMLID_1540_"><path class="st6" id="XMLID_1549_" d="M305.6 292.9h4.8v19h5.5v-24.1l-10.3.9z"/><path class="st6" d="M332.7 296.3c-.8 0-1.6.1-2.3.3-.7.2-1.3.5-1.7.8l.6-4.9h9.4v-4.3h-13.9l-1.4 13.3 4.9.3c.2-.5.5-.9.9-1.2.5-.3 1-.5 1.8-.5 1 0 1.7.4 2.2 1.1.5.7.7 1.8.7 3.1 0 1.2-.2 2.2-.6 2.8-.4.6-1.1.9-2.1.9-.9 0-1.6-.2-2.1-.7-.5-.5-.8-1.1-.8-2l-5.4.3v.1c-.1 2 .7 3.5 2.4 4.7 1.7 1.2 3.6 1.8 5.9 1.8 2.8 0 4.9-.8 6.3-2.3 1.3-1.5 2-3.4 2-5.7 0-2.6-.6-4.5-1.8-5.9-1.1-1.4-2.8-2.1-5-2z" id="XMLID_1617_"/><path class="st6" d="M351.5 297.5c.9-.9 1.4-2.1 1.4-3.5v-1.3c0-1.4-.5-2.6-1.4-3.5-.9-.9-2.2-1.4-3.9-1.4-1.7 0-3 .5-3.9 1.4-.9.9-1.4 2.1-1.4 3.5v1.3c0 1.4.5 2.6 1.4 3.5.9.9 2.2 1.4 3.9 1.4 1.7 0 3-.5 3.9-1.4zm-5.7-3.5v-1.3c0-.5.2-1 .5-1.4.3-.4.7-.6 1.3-.6.6 0 1 .2 1.3.6.3.4.5.8.5 1.4v1.3c0 .5-.1 1-.4 1.4-.3.4-.7.5-1.3.5-.6 0-1-.2-1.3-.5-.4-.4-.6-.9-.6-1.4z" id="XMLID_2321_"/><path class="st6" d="M362.8 302.6c-.9-.9-2.2-1.4-3.9-1.4-1.7 0-3 .5-3.9 1.4-.9.9-1.4 2.1-1.4 3.5v1.3c0 1.4.5 2.6 1.4 3.5.9.9 2.2 1.4 3.9 1.4 1.7 0 3-.5 3.9-1.4.9-.9 1.4-2.1 1.4-3.5v-1.3c-.1-1.4-.5-2.6-1.4-3.5zm-2.2 4.7c0 .6-.1 1.1-.4 1.4-.2.3-.7.5-1.4.5-.5 0-.9-.2-1.3-.6-.3-.4-.5-.8-.5-1.4v-1.3c0-.5.2-1 .5-1.4.3-.4.7-.6 1.3-.6.6 0 1 .2 1.3.6.3.4.5.8.5 1.4v1.4z" id="XMLID_2324_"/><path class="st6" id="XMLID_2325_" d="M357.4 290.3l-11.6 18.5 2.5 1.3 11.6-18.5z"/></g><g id="XMLID_54_"><g id="XMLID_1506_"><path class="st8" d="M35 221.6l2.2-2.7c1.6-1.8 2.7-3.1 3.3-4 .6-.9.9-1.9.9-3.1 0-1.7-.5-3.1-1.6-4.1-1.1-1-2.7-1.5-4.7-1.5-1.9 0-3.5.6-4.6 1.8-1.2 1.2-1.7 2.6-1.7 4.3v.1H33c0-.8.2-1.5.6-2.1.4-.5.9-.8 1.6-.8.7 0 1.2.2 1.5.6.3.4.5 1 .5 1.7 0 .5-.2 1.1-.5 1.8-.4.7-.9 1.4-1.7 2.3l-5.7 6.2v2.8h12.8v-3.3H35z" id="XMLID_1507_"/><path class="st8" d="M50.6 206.2c-1.9 0-3.5.6-4.7 1.9-1.2 1.2-1.8 3-1.8 5.2v4.9c0 2.2.6 3.9 1.8 5.2s2.7 1.9 4.7 1.9c1.9 0 3.5-.6 4.7-1.9 1.2-1.2 1.8-3 1.8-5.2v-4.9c0-2.2-.6-3.9-1.8-5.2-1.3-1.3-2.8-1.9-4.7-1.9zm2.1 12.2c0 1.2-.2 2-.6 2.6-.4.6-.9.9-1.6.9-.7 0-1.2-.3-1.6-.9-.4-.6-.6-1.5-.6-2.6V213c0-1.1.2-2 .6-2.6.4-.6.9-.9 1.6-.9.7 0 1.2.3 1.6.9.4.6.6 1.5.6 2.6v5.4z" id="XMLID_1571_"/><path class="st8" id="XMLID_1572_" d="M60.7 210.2h3.7V225h4.3v-18.8l-8 .7z"/><path class="st8" d="M86 214.5c-.9-1.2-2.1-1.7-3.7-1.7-.9 0-1.6.1-2.3.4-.7.3-1.2.6-1.7 1.1v-.3c0-1.5.3-2.6 1-3.3s1.5-1.1 2.5-1.1c.6 0 1.1 0 1.5.1.4.1.9.2 1.5.4l.7-3.1c-.7-.3-1.3-.5-1.9-.6-.6-.1-1.2-.2-1.9-.2-2.3 0-4.1.7-5.6 2.1s-2.2 3.3-2.2 5.7v3.7c0 2.3.6 4.1 1.9 5.5 1.2 1.3 2.9 2 4.9 2 1.9 0 3.4-.6 4.7-1.8s1.8-2.7 1.8-4.5c.1-1.8-.3-3.3-1.2-4.4zm-3.6 6.6c-.4.6-.9.9-1.6.9-.8 0-1.4-.4-1.9-1.1-.4-.7-.7-1.7-.7-3.1v-.8c.2-.3.6-.5 1-.7.4-.2 1-.2 1.6-.2.6 0 1.1.3 1.5.8.4.5.6 1.2.6 2.2.1.7-.1 1.4-.5 2z" id="XMLID_1575_"/></g><g id="XMLID_16_"><path class="st8" d="M35 272.9l2.3-2.7c1.6-1.8 2.7-3.1 3.4-4 .6-.9.9-1.9.9-3.1 0-1.7-.6-3.1-1.7-4.1-1.1-1-2.7-1.5-4.7-1.5-1.9 0-3.5.6-4.7 1.8-1.2 1.2-1.7 2.6-1.7 4.4v.1H33c0-.8.2-1.5.6-2.1.4-.5.9-.8 1.6-.8.7 0 1.2.2 1.6.6.3.4.5 1 .5 1.7 0 .5-.2 1.1-.5 1.8-.4.7-.9 1.5-1.7 2.3l-5.7 6.3v2.8h12.9v-3.3l-7.3-.2z" id="XMLID_1451_"/><path class="st8" d="M50.6 257.5c-1.9 0-3.5.6-4.7 1.9-1.2 1.3-1.8 3-1.8 5.2v4.9c0 2.2.6 3.9 1.8 5.2 1.2 1.3 2.7 1.9 4.7 1.9 1.9 0 3.5-.6 4.7-1.9 1.2-1.3 1.8-3 1.8-5.2v-4.9c0-2.2-.6-3.9-1.8-5.2-1.2-1.3-2.8-1.9-4.7-1.9zm2.2 12.2c0 1.2-.2 2-.6 2.6-.4.6-.9.9-1.6.9-.7 0-1.2-.3-1.6-.9-.4-.6-.6-1.5-.6-2.6v-5.5c0-1.1.2-2 .6-2.6.4-.6.9-.9 1.6-.9.7 0 1.2.3 1.6.9.4.6.6 1.5.6 2.6v5.5z" id="XMLID_1519_"/><path class="st8" id="XMLID_1526_" d="M60.8 261.4h3.7v14.9h4.3v-18.8l-8 .6z"/><path class="st8" d="M85.9 265.7c-.9-1.1-2.3-1.6-4-1.6-.6 0-1.2.1-1.8.3-.5.2-1 .4-1.3.6l.5-3.9h7.4v-3.3H75.9l-1.1 10.4 3.9.2c.1-.4.4-.7.7-.9.4-.2.8-.4 1.4-.4.8 0 1.4.3 1.7.9.4.6.5 1.4.5 2.4s-.2 1.7-.5 2.2c-.3.5-.9.7-1.7.7-.7 0-1.2-.2-1.6-.6-.4-.4-.6-.9-.6-1.5l-4.2.3v.1c-.1 1.5.6 2.8 1.9 3.7 1.3.9 2.8 1.4 4.6 1.4 2.2 0 3.8-.6 4.9-1.8s1.6-2.7 1.6-4.5c-.1-2.1-.5-3.7-1.5-4.7z" id="XMLID_1527_"/></g><g id="XMLID_1508_"><path class="st8" d="M35 324.1l2.2-2.7c1.6-1.8 2.7-3.1 3.3-4 .6-.9.9-1.9.9-3.1 0-1.7-.5-3.1-1.6-4.1-1.1-1-2.7-1.5-4.7-1.5-1.9 0-3.5.6-4.6 1.8-1.2 1.2-1.7 2.6-1.7 4.3v.1H33c0-.8.2-1.5.6-2.1s.9-.8 1.5-.8c.7 0 1.2.2 1.5.6.3.4.5 1 .5 1.7 0 .5-.2 1.1-.5 1.8-.4.7-.9 1.4-1.7 2.3l-5.7 6.2v2.8H42v-3.3h-7z" id="XMLID_1510_"/><path class="st8" d="M50.5 308.8c-1.9 0-3.5.6-4.7 1.9-1.2 1.2-1.7 3-1.7 5.2v4.9c0 2.2.6 3.9 1.8 5.2 1.2 1.2 2.7 1.9 4.7 1.9 1.9 0 3.5-.6 4.6-1.9 1.2-1.2 1.8-3 1.8-5.2v-4.9c0-2.2-.6-3.9-1.8-5.2-1.2-1.3-2.8-1.9-4.7-1.9zm2.2 12.2c0 1.1-.2 2-.6 2.6-.4.6-.9.9-1.6.9-.7 0-1.2-.3-1.6-.9-.4-.6-.6-1.5-.6-2.6v-5.4c0-1.1.2-2 .6-2.6.4-.6.9-.9 1.6-.9.7 0 1.2.3 1.6.9.4.6.6 1.4.6 2.6v5.4z" id="XMLID_1544_"/><path class="st8" id="XMLID_1545_" d="M60.6 312.7h3.7v14.8h4.3v-18.7l-8 .6z"/><path class="st8" d="M85.5 320.3v-11.2h-4.3L73.6 321l.3 2.6h7.3v3.9h4.3v-3.9h1.9v-3.3h-1.9zm-4.3 0h-3.9l3.4-4.8.5-.9h.1v5.7z" id="XMLID_1548_"/></g><g id="XMLID_1515_"><path class="st8" d="M35 375.4l2.2-2.7c1.6-1.8 2.7-3.1 3.3-4 .6-.9.9-1.9.9-3.1 0-1.7-.5-3.1-1.6-4.1-1.1-1-2.7-1.5-4.7-1.5-1.9 0-3.5.6-4.6 1.8-1.2 1.2-1.7 2.6-1.7 4.3v.1H33c0-.8.2-1.5.6-2.1.4-.5.9-.8 1.6-.8.7 0 1.2.2 1.5.6.3.4.5 1 .5 1.7 0 .5-.2 1.1-.5 1.8-.4.7-.9 1.4-1.7 2.3l-5.7 6.2v2.8h12.8v-3.3H35z" id="XMLID_1518_"/><path class="st8" d="M50.5 360c-1.9 0-3.5.6-4.7 1.9-1.2 1.2-1.7 3-1.7 5.2v4.9c0 2.2.6 3.9 1.8 5.2 1.2 1.2 2.7 1.9 4.7 1.9 1.9 0 3.5-.6 4.6-1.9 1.2-1.2 1.8-3 1.8-5.2v-4.9c0-2.2-.6-3.9-1.8-5.2-1.2-1.2-2.8-1.9-4.7-1.9zm2.2 12.2c0 1.1-.2 2-.6 2.6-.4.6-.9.9-1.6.9-.7 0-1.2-.3-1.6-.9-.4-.6-.6-1.5-.6-2.6v-5.4c0-1.1.2-2 .6-2.6.4-.6.9-.9 1.6-.9.7 0 1.2.3 1.6.9.4.6.6 1.4.6 2.6v5.4z" id="XMLID_1561_"/><path class="st8" id="XMLID_1562_" d="M60.7 364h3.7v14.7h4.3V360l-8 .7z"/><path class="st8" d="M86.5 370.9c-.5-.7-1.3-1.3-2.3-1.6.9-.4 1.6-1 2.1-1.7s.8-1.5.8-2.3c0-1.7-.6-3-1.8-3.9-1.2-.9-2.8-1.4-4.8-1.4-1.7 0-3.2.5-4.4 1.4-1.2.9-1.8 2.1-1.7 3.6v.1h4.2c0-.5.2-.9.6-1.2.4-.3.8-.5 1.4-.5.7 0 1.3.2 1.7.6.4.4.6.9.6 1.5 0 .7-.2 1.3-.6 1.7-.4.4-1 .6-1.8.6h-2v3.2h2c.9 0 1.5.2 2 .6.5.4.7 1.1.7 2 0 .6-.2 1.2-.7 1.6-.5.4-1.1.6-1.9.6-.6 0-1.2-.2-1.6-.6-.4-.4-.6-.9-.6-1.5h-4.2v.1c0 1.7.6 3 1.9 3.9 1.3.9 2.8 1.4 4.5 1.4 2 0 3.7-.5 5-1.4 1.3-1 1.9-2.3 1.9-4-.2-1.2-.4-2.1-1-2.8z" id="XMLID_1563_"/></g></g></g></svg>