<svg id="Layer_1" viewBox="0 0 512 512" xmlns="http://www.w3.org/2000/svg"><style>.st0{fill:#CCE134;} .st1{fill:#3C7D90;} .st2{fill:#01B49E;} .st3{fill:#F3922B;}</style><g id="XMLID_870_"><path class="st0" d="M128.1 329.9V182.1c4.1-2.5 6.8-6.9 6.8-12 0-7.8-6.3-14.1-14.1-14.1s-14.1 6.3-14.1 14.1c0 5.1 2.7 9.6 6.8 12v147.7c-4.1 2.5-6.8 6.9-6.8 12 0 7.8 6.3 14.1 14.1 14.1s14.1-6.3 14.1-14.1c0-5-2.7-9.5-6.8-11.9z" id="XMLID_890_"/><path class="st1" d="M398.5 329.9V182.1c4.1-2.5 6.8-6.9 6.8-12 0-7.8-6.3-14.1-14.1-14.1s-14.1 6.3-14.1 14.1c0 5.1 2.7 9.6 6.8 12v147.7c-4.1 2.5-6.8 6.9-6.8 12 0 7.8 6.3 14.1 14.1 14.1s14.1-6.3 14.1-14.1c0-5-2.7-9.5-6.8-11.9z" id="XMLID_891_"/><path class="st2" d="M182.3 120.8H330c2.5 4.1 6.9 6.8 12 6.8 7.8 0 14.1-6.3 14.1-14.1s-6.3-14.1-14.1-14.1c-5.1 0-9.6 2.7-12 6.8H182.3c-2.5-4.1-6.9-6.8-12-6.8-7.8 0-14.1 6.3-14.1 14.1s6.3 14.1 14.1 14.1c5.1 0 9.5-2.7 12-6.8z" id="XMLID_897_"/><path class="st3" d="M170.3 420.6c-12.2 0-22.1-9.9-22.1-22.1s9.9-22.1 22.1-22.1c6.1 0 11.8 2.5 15.9 6.8h17.9v-32.8L136 311.1V326c4.3 4.1 6.8 9.8 6.8 15.9 0 12.2-9.9 22.1-22.1 22.1s-22.1-9.9-22.1-22.1c0-6.1 2.5-11.8 6.8-15.9v-14.9l-68.1 39.3v96.2l83.3 48.1 83.3-48.1v-32.8H186c-3.9 4.3-9.6 6.8-15.7 6.8z" id="XMLID_871_"/><path class="st1" d="M413.3 341.9c0 12.2-9.9 22.1-22.1 22.1s-22.1-9.9-22.1-22.1c0-6.1 2.5-11.8 6.8-15.9v-14.9l-68.1 39.3v32.8h18.3c4.1-4.3 9.8-6.8 15.9-6.8 12.2 0 22.1 9.9 22.1 22.1s-9.9 22.1-22.1 22.1c-6.1 0-11.8-2.5-15.9-6.8h-18.3v32.8l83.3 48.1 83.3-48.1v-96.2l-68.1-39.3V326c4.5 4.1 7 9.8 7 15.9z" id="XMLID_904_"/><path class="st0" d="M98.7 170.1c0-12.2 9.9-22.1 22.1-22.1s22.1 9.9 22.1 22.1c0 6.1-2.5 11.8-6.8 15.9v14.9l68.1-39.3v-32.8h-17.9c-4.1 4.3-9.8 6.8-15.9 6.8-12.2 0-22.1-9.9-22.1-22.1s9.9-22.1 22.1-22.1c6.1 0 11.8 2.5 15.9 6.8h17.9V65.4l-83.3-48.1-83.4 48.1v96.2l68.1 39.3V186c-4.4-4.1-6.9-9.8-6.9-15.9z" id="XMLID_905_"/><path class="st2" d="M342.1 91.4c12.2 0 22.1 9.9 22.1 22.1s-9.9 22.1-22.1 22.1c-6.1 0-11.8-2.5-15.9-6.8h-18.3v32.8l68.1 39.3V186c-4.3-4.1-6.8-9.8-6.8-15.9 0-12.2 9.9-22.1 22.1-22.1s22.1 9.9 22.1 22.1c0 6.1-2.5 11.8-6.8 15.9v14.9l68.1-39.3V65.4l-83.3-48.1-83.3 48.1v32.8h18.3c3.9-4.3 9.5-6.8 15.7-6.8z" id="XMLID_906_"/><path class="st3" d="M182.3 405.8H330c2.5 4.1 6.9 6.8 12 6.8 7.8 0 14.1-6.3 14.1-14.1s-6.3-14.1-14.1-14.1c-5.1 0-9.6 2.7-12 6.8H182.3c-2.5-4.1-6.9-6.8-12-6.8-7.8 0-14.1 6.3-14.1 14.1s6.3 14.1 14.1 14.1c5.1 0 9.5-2.7 12-6.8z" id="XMLID_896_"/></g></svg>